<?xml version="1.0" encoding="UTF-8"?>
<svg id="_Слой_2" data-name="Слой 2" xmlns="http://www.w3.org/2000/svg" viewBox="0 0 2619.21 436.54">
  <g id="_Слой_1-2" data-name="Слой 1">
    <g>
      <path d="m561.26,243.7v-49.73c0-28.93,19.9-46.57,51.34-46.57h110.14c30.76,0,51.11,17.41,51.11,46.57v49.73c0,28.48-20.35,45.44-51.57,45.44h-109.46c-30.76,0-51.57-17.41-51.57-45.44Zm154.92,13.79c15.16,0,21.49-6.33,21.49-20.34v-37.52c0-13.56-6.78-20.57-23.07-20.57h-94.08c-16.28,0-22.84,8.14-22.84,20.57v37.52c0,13.11,8.14,20.34,21.26,20.34h97.25Z"/>
      <path d="m2406.61,243.7v-49.73c0-28.93,19.9-46.57,51.34-46.57h110.14c30.76,0,51.11,17.41,51.11,46.57v49.73c0,28.48-20.35,45.44-51.57,45.44h-109.46c-30.76,0-51.57-17.41-51.57-45.44Zm154.92,13.79c15.16,0,21.49-6.33,21.49-20.34v-37.52c0-13.56-6.78-20.57-23.07-20.57h-94.08c-16.28,0-22.84,8.14-22.84,20.57v37.52c0,13.11,8.14,20.34,21.26,20.34h97.25Z"/>
      <path d="m978.75,289.13l-43.43-50.63h-93.64v50.63h-36.64v-141.73h169.19c24.88,0,43.41,18.54,43.41,41.59v5.88c0,22.6-13.78,39.33-36.4,42.95l42.07,51.31h-44.56Zm-137.07-82.28h126.21c8.82,0,14.02-5.88,14.02-13.11v-1.58c0-7.69-6.56-13.11-14.02-13.11h-126.21v27.8Z"/>
      <path d="m1292.6,147.4h36.85v141.73h-36.85v-141.73Z"/>
      <path d="m1366.3,257.49h160.11c7.01,0,10.4-3.52,10.4-8.04v-2.83c0-4.07-3.84-6.76-9.05-7.21l-127.33-9.95c-23.3-1.81-39.81-12.21-39.81-35.49v-9.49c0-23.51,16.96-37.07,43.2-37.07h158.06v31.65h-155.12c-6.33,0-9.72,3.84-9.72,7.69v2.94c0,3.62,2.49,7.69,8.82,8.36l131.18,10.17c21.26,1.58,36.19,13.11,36.19,35.94v8.82c0,21.25-19,36.17-43.2,36.17h-163.73v-31.65Z"/>
      <path d="m1864.26,261.56h-114.57l-20.19,27.58h-42.88l104.82-141.73h31.54l104.59,141.73h-43.33l-19.97-27.58Zm-23.37-31.87l-34.03-46.79-34.03,46.79h68.06Z"/>
      <path d="m1930.39,243.7v-96.3h36.85v89.74c0,13.11,7.7,20.34,20.82,20.34h97.25c15.15,0,20.82-6.33,20.82-20.34v-89.74h36.85v96.3c0,28.48-20.13,45.44-51.57,45.44h-109.47c-30.76,0-51.57-17.41-51.57-45.44Z"/>
      <path d="m2256.38,179.44h-87.87v-32.04h212.6v32.04h-87.87v111.45h-36.85v-111.45Z"/>
      <path d="m1261.42,187.41v-3.17c0-21.47-17.31-36.85-42.2-36.85h-170.4v141.73h171.08c23.53,0,41.52-16.5,41.52-37.98v-3.84c0-14.24-9.84-25.77-20.71-30.29,11.32-4.52,20.71-15.15,20.71-29.61Zm-175.75-8.36h127.93c6.1.31,10.95,5.34,10.95,11.51s-4.85,11.2-10.95,11.51h-127.93v-23.02Zm127.51,78.41h-127.51v-23.9h127.51c6.33.32,11.37,5.54,11.37,11.95s-5.04,11.62-11.37,11.95Z"/>
      <path d="m218.27,31.18c49.97,0,96.95,19.46,132.29,54.8,35.34,35.34,54.8,82.32,54.8,132.29s-19.46,96.95-54.8,132.29c-35.34,35.34-82.32,54.8-132.29,54.8s-96.95-19.46-132.29-54.8-54.8-82.32-54.8-132.29,19.46-96.95,54.8-132.29S168.3,31.18,218.27,31.18m0-31.18C97.72,0,0,97.72,0,218.27s97.72,218.27,218.27,218.27,218.27-97.72,218.27-218.27S338.81,0,218.27,0h0Z"/>
      <polygon points="232.93 203.37 252.07 229.68 252.07 229.68 275.25 261.56 275.44 261.56 295.41 289.13 338.74 289.13 234.15 147.4 192.23 147.4 232.93 203.37"/>
      <polygon points="141.82 229.61 97.8 289.13 140.68 289.13 149.85 276.6 184.06 229.61 141.82 229.61"/>
    </g>
  </g>
</svg>